<?xml version="1.0" encoding="utf-8"?>
<COLLADA xmlns="http://www.collada.org/2005/11/COLLADASchema" version="1.4.1">
  <asset>
    <contributor><authoring_tool>gen_worker_dae.py</authoring_tool></contributor>
    <unit name="meter" meter="1"/>
    <up_axis>Z_UP</up_axis>
  </asset>
  <library_effects>
    <effect id="mat-effect">
      <profile_COMMON><technique sid="common"><lambert>
        <diffuse><color sid="diffuse">0.95 0.55 0.10 1</color></diffuse>
      </lambert></technique></profile_COMMON>
    </effect>
  </library_effects>
  <library_materials>
    <material id="mat" name="mat"><instance_effect url="#mat-effect"/></material>
  </library_materials>
  <library_geometries>
    <geometry id="worker-mesh" name="worker">
      <mesh>
        <source id="worker-positions">
          <float_array id="worker-positions-array" count="432">-0.1000 -0.1000 1.7400 0.1000 -0.1000 1.7400 0.1000 0.1000 1.7400 -0.1000 0.1000 1.7400 -0.1000 -0.1000 1.5000 -0.1000 0.1000 1.5000 0.1000 0.1000 1.5000 0.1000 -0.1000 1.5000 0.1000 -0.1000 1.5000 0.1000 0.1000 1.5000 0.1000 0.1000 1.7400 0.1000 -0.1000 1.7400 -0.1000 -0.1000 1.5000 -0.1000 -0.1000 1.7400 -0.1000 0.1000 1.7400 -0.1000 0.1000 1.5000 -0.1000 0.1000 1.5000 -0.1000 0.1000 1.7400 0.1000 0.1000 1.7400 0.1000 0.1000 1.5000 -0.1000 -0.1000 1.5000 0.1000 -0.1000 1.5000 0.1000 -0.1000 1.7400 -0.1000 -0.1000 1.7400 -0.1200 -0.2100 1.5000 0.1200 -0.2100 1.5000 0.1200 0.2100 1.5000 -0.1200 0.2100 1.5000 -0.1200 -0.2100 0.9000 -0.1200 0.2100 0.9000 0.1200 0.2100 0.9000 0.1200 -0.2100 0.9000 0.1200 -0.2100 0.9000 0.1200 0.2100 0.9000 0.1200 0.2100 1.5000 0.1200 -0.2100 1.5000 -0.1200 -0.2100 0.9000 -0.1200 -0.2100 1.5000 -0.1200 0.2100 1.5000 -0.1200 0.2100 0.9000 -0.1200 0.2100 0.9000 -0.1200 0.2100 1.5000 0.1200 0.2100 1.5000 0.1200 0.2100 0.9000 -0.1200 -0.2100 0.9000 0.1200 -0.2100 0.9000 0.1200 -0.2100 1.5000 -0.1200 -0.2100 1.5000 -0.0550 0.2350 1.4600 0.0550 0.2350 1.4600 0.0550 0.3450 1.4600 -0.0550 0.3450 1.4600 -0.0550 0.2350 0.8400 -0.0550 0.3450 0.8400 0.0550 0.3450 0.8400 0.0550 0.2350 0.8400 0.0550 0.2350 0.8400 0.0550 0.3450 0.8400 0.0550 0.3450 1.4600 0.0550 0.2350 1.4600 -0.0550 0.2350 0.8400 -0.0550 0.2350 1.4600 -0.0550 0.3450 1.4600 -0.0550 0.3450 0.8400 -0.0550 0.3450 0.8400 -0.0550 0.3450 1.4600 0.0550 0.3450 1.4600 0.0550 0.3450 0.8400 -0.0550 0.2350 0.8400 0.0550 0.2350 0.8400 0.0550 0.2350 1.4600 -0.0550 0.2350 1.4600 -0.0550 -0.3450 1.4600 0.0550 -0.3450 1.4600 0.0550 -0.2350 1.4600 -0.0550 -0.2350 1.4600 -0.0550 -0.3450 0.8400 -0.0550 -0.2350 0.8400 0.0550 -0.2350 0.8400 0.0550 -0.3450 0.8400 0.0550 -0.3450 0.8400 0.0550 -0.2350 0.8400 0.0550 -0.2350 1.4600 0.0550 -0.3450 1.4600 -0.0550 -0.3450 0.8400 -0.0550 -0.3450 1.4600 -0.0550 -0.2350 1.4600 -0.0550 -0.2350 0.8400 -0.0550 -0.2350 0.8400 -0.0550 -0.2350 1.4600 0.0550 -0.2350 1.4600 0.0550 -0.2350 0.8400 -0.0550 -0.3450 0.8400 0.0550 -0.3450 0.8400 0.0550 -0.3450 1.4600 -0.0550 -0.3450 1.4600 -0.1000 0.0200 0.9000 0.1000 0.0200 0.9000 0.1000 0.2000 0.9000 -0.1000 0.2000 0.9000 -0.1000 0.0200 0.0000 -0.1000 0.2000 0.0000 0.1000 0.2000 0.0000 0.1000 0.0200 0.0000 0.1000 0.0200 0.0000 0.1000 0.2000 0.0000 0.1000 0.2000 0.9000 0.1000 0.0200 0.9000 -0.1000 0.0200 0.0000 -0.1000 0.0200 0.9000 -0.1000 0.2000 0.9000 -0.1000 0.2000 0.0000 -0.1000 0.2000 0.0000 -0.1000 0.2000 0.9000 0.1000 0.2000 0.9000 0.1000 0.2000 0.0000 -0.1000 0.0200 0.0000 0.1000 0.0200 0.0000 0.1000 0.0200 0.9000 -0.1000 0.0200 0.9000 -0.1000 -0.2000 0.9000 0.1000 -0.2000 0.9000 0.1000 -0.0200 0.9000 -0.1000 -0.0200 0.9000 -0.1000 -0.2000 0.0000 -0.1000 -0.0200 0.0000 0.1000 -0.0200 0.0000 0.1000 -0.2000 0.0000 0.1000 -0.2000 0.0000 0.1000 -0.0200 0.0000 0.1000 -0.0200 0.9000 0.1000 -0.2000 0.9000 -0.1000 -0.2000 0.0000 -0.1000 -0.2000 0.9000 -0.1000 -0.0200 0.9000 -0.1000 -0.0200 0.0000 -0.1000 -0.0200 0.0000 -0.1000 -0.0200 0.9000 0.1000 -0.0200 0.9000 0.1000 -0.0200 0.0000 -0.1000 -0.2000 0.0000 0.1000 -0.2000 0.0000 0.1000 -0.2000 0.9000 -0.1000 -0.2000 0.9000</float_array>
          <technique_common><accessor source="#worker-positions-array" count="144" stride="3">
            <param name="X" type="float"/><param name="Y" type="float"/><param name="Z" type="float"/>
          </accessor></technique_common>
        </source>
        <source id="worker-normals">
          <float_array id="worker-normals-array" count="432">0.0 0.0 1.0 0.0 0.0 1.0 0.0 0.0 1.0 0.0 0.0 1.0 0.0 0.0 -1.0 0.0 0.0 -1.0 0.0 0.0 -1.0 0.0 0.0 -1.0 1.0 0.0 0.0 1.0 0.0 0.0 1.0 0.0 0.0 1.0 0.0 0.0 -1.0 0.0 0.0 -1.0 0.0 0.0 -1.0 0.0 0.0 -1.0 0.0 0.0 0.0 1.0 0.0 0.0 1.0 0.0 0.0 1.0 0.0 0.0 1.0 0.0 0.0 -1.0 0.0 0.0 -1.0 0.0 0.0 -1.0 0.0 0.0 -1.0 0.0 0.0 0.0 1.0 0.0 0.0 1.0 0.0 0.0 1.0 0.0 0.0 1.0 0.0 0.0 -1.0 0.0 0.0 -1.0 0.0 0.0 -1.0 0.0 0.0 -1.0 1.0 0.0 0.0 1.0 0.0 0.0 1.0 0.0 0.0 1.0 0.0 0.0 -1.0 0.0 0.0 -1.0 0.0 0.0 -1.0 0.0 0.0 -1.0 0.0 0.0 0.0 1.0 0.0 0.0 1.0 0.0 0.0 1.0 0.0 0.0 1.0 0.0 0.0 -1.0 0.0 0.0 -1.0 0.0 0.0 -1.0 0.0 0.0 -1.0 0.0 0.0 0.0 1.0 0.0 0.0 1.0 0.0 0.0 1.0 0.0 0.0 1.0 0.0 0.0 -1.0 0.0 0.0 -1.0 0.0 0.0 -1.0 0.0 0.0 -1.0 1.0 0.0 0.0 1.0 0.0 0.0 1.0 0.0 0.0 1.0 0.0 0.0 -1.0 0.0 0.0 -1.0 0.0 0.0 -1.0 0.0 0.0 -1.0 0.0 0.0 0.0 1.0 0.0 0.0 1.0 0.0 0.0 1.0 0.0 0.0 1.0 0.0 0.0 -1.0 0.0 0.0 -1.0 0.0 0.0 -1.0 0.0 0.0 -1.0 0.0 0.0 0.0 1.0 0.0 0.0 1.0 0.0 0.0 1.0 0.0 0.0 1.0 0.0 0.0 -1.0 0.0 0.0 -1.0 0.0 0.0 -1.0 0.0 0.0 -1.0 1.0 0.0 0.0 1.0 0.0 0.0 1.0 0.0 0.0 1.0 0.0 0.0 -1.0 0.0 0.0 -1.0 0.0 0.0 -1.0 0.0 0.0 -1.0 0.0 0.0 0.0 1.0 0.0 0.0 1.0 0.0 0.0 1.0 0.0 0.0 1.0 0.0 0.0 -1.0 0.0 0.0 -1.0 0.0 0.0 -1.0 0.0 0.0 -1.0 0.0 0.0 0.0 1.0 0.0 0.0 1.0 0.0 0.0 1.0 0.0 0.0 1.0 0.0 0.0 -1.0 0.0 0.0 -1.0 0.0 0.0 -1.0 0.0 0.0 -1.0 1.0 0.0 0.0 1.0 0.0 0.0 1.0 0.0 0.0 1.0 0.0 0.0 -1.0 0.0 0.0 -1.0 0.0 0.0 -1.0 0.0 0.0 -1.0 0.0 0.0 0.0 1.0 0.0 0.0 1.0 0.0 0.0 1.0 0.0 0.0 1.0 0.0 0.0 -1.0 0.0 0.0 -1.0 0.0 0.0 -1.0 0.0 0.0 -1.0 0.0 0.0 0.0 1.0 0.0 0.0 1.0 0.0 0.0 1.0 0.0 0.0 1.0 0.0 0.0 -1.0 0.0 0.0 -1.0 0.0 0.0 -1.0 0.0 0.0 -1.0 1.0 0.0 0.0 1.0 0.0 0.0 1.0 0.0 0.0 1.0 0.0 0.0 -1.0 0.0 0.0 -1.0 0.0 0.0 -1.0 0.0 0.0 -1.0 0.0 0.0 0.0 1.0 0.0 0.0 1.0 0.0 0.0 1.0 0.0 0.0 1.0 0.0 0.0 -1.0 0.0 0.0 -1.0 0.0 0.0 -1.0 0.0 0.0 -1.0 0.0</float_array>
          <technique_common><accessor source="#worker-normals-array" count="144" stride="3">
            <param name="X" type="float"/><param name="Y" type="float"/><param name="Z" type="float"/>
          </accessor></technique_common>
        </source>
        <vertices id="worker-vertices">
          <input semantic="POSITION" source="#worker-positions"/>
        </vertices>
        <triangles material="mat" count="72">
          <input semantic="VERTEX" source="#worker-vertices" offset="0"/>
          <input semantic="NORMAL" source="#worker-normals" offset="1"/>
          <p>0 0 1 1 2 2 0 0 2 2 3 3 4 4 5 5 6 6 4 4 6 6 7 7 8 8 9 9 10 10 8 8 10 10 11 11 12 12 13 13 14 14 12 12 14 14 15 15 16 16 17 17 18 18 16 16 18 18 19 19 20 20 21 21 22 22 20 20 22 22 23 23 24 24 25 25 26 26 24 24 26 26 27 27 28 28 29 29 30 30 28 28 30 30 31 31 32 32 33 33 34 34 32 32 34 34 35 35 36 36 37 37 38 38 36 36 38 38 39 39 40 40 41 41 42 42 40 40 42 42 43 43 44 44 45 45 46 46 44 44 46 46 47 47 48 48 49 49 50 50 48 48 50 50 51 51 52 52 53 53 54 54 52 52 54 54 55 55 56 56 57 57 58 58 56 56 58 58 59 59 60 60 61 61 62 62 60 60 62 62 63 63 64 64 65 65 66 66 64 64 66 66 67 67 68 68 69 69 70 70 68 68 70 70 71 71 72 72 73 73 74 74 72 72 74 74 75 75 76 76 77 77 78 78 76 76 78 78 79 79 80 80 81 81 82 82 80 80 82 82 83 83 84 84 85 85 86 86 84 84 86 86 87 87 88 88 89 89 90 90 88 88 90 90 91 91 92 92 93 93 94 94 92 92 94 94 95 95 96 96 97 97 98 98 96 96 98 98 99 99 100 100 101 101 102 102 100 100 102 102 103 103 104 104 105 105 106 106 104 104 106 106 107 107 108 108 109 109 110 110 108 108 110 110 111 111 112 112 113 113 114 114 112 112 114 114 115 115 116 116 117 117 118 118 116 116 118 118 119 119 120 120 121 121 122 122 120 120 122 122 123 123 124 124 125 125 126 126 124 124 126 126 127 127 128 128 129 129 130 130 128 128 130 130 131 131 132 132 133 133 134 134 132 132 134 134 135 135 136 136 137 137 138 138 136 136 138 138 139 139 140 140 141 141 142 142 140 140 142 142 143 143</p>
        </triangles>
      </mesh>
    </geometry>
  </library_geometries>
  <library_controllers>
    <controller id="worker-skin" name="Armature">
      <skin source="#worker-mesh">
        <bind_shape_matrix>1 0 0 0 0 1 0 0 0 0 1 0 0 0 0 1</bind_shape_matrix>
        <source id="worker-skin-joints">
          <Name_array id="worker-skin-joints-array" count="1">root</Name_array>
          <technique_common><accessor source="#worker-skin-joints-array" count="1" stride="1">
            <param name="JOINT" type="name"/></accessor></technique_common>
        </source>
        <source id="worker-skin-bind_poses">
          <float_array id="worker-skin-bind_poses-array" count="16">1 0 0 0 0 1 0 0 0 0 1 0 0 0 0 1</float_array>
          <technique_common><accessor source="#worker-skin-bind_poses-array" count="1" stride="16">
            <param name="TRANSFORM" type="float4x4"/></accessor></technique_common>
        </source>
        <source id="worker-skin-weights">
          <float_array id="worker-skin-weights-array" count="1">1</float_array>
          <technique_common><accessor source="#worker-skin-weights-array" count="1" stride="1">
            <param name="WEIGHT" type="float"/></accessor></technique_common>
        </source>
        <joints>
          <input semantic="JOINT" source="#worker-skin-joints"/>
          <input semantic="INV_BIND_MATRIX" source="#worker-skin-bind_poses"/>
        </joints>
        <vertex_weights count="144">
          <input semantic="JOINT" source="#worker-skin-joints" offset="0"/>
          <input semantic="WEIGHT" source="#worker-skin-weights" offset="1"/>
          <vcount>1 1 1 1 1 1 1 1 1 1 1 1 1 1 1 1 1 1 1 1 1 1 1 1 1 1 1 1 1 1 1 1 1 1 1 1 1 1 1 1 1 1 1 1 1 1 1 1 1 1 1 1 1 1 1 1 1 1 1 1 1 1 1 1 1 1 1 1 1 1 1 1 1 1 1 1 1 1 1 1 1 1 1 1 1 1 1 1 1 1 1 1 1 1 1 1 1 1 1 1 1 1 1 1 1 1 1 1 1 1 1 1 1 1 1 1 1 1 1 1 1 1 1 1 1 1 1 1 1 1 1 1 1 1 1 1 1 1 1 1 1 1 1 1</vcount>
          <v>0 0 0 0 0 0 0 0 0 0 0 0 0 0 0 0 0 0 0 0 0 0 0 0 0 0 0 0 0 0 0 0 0 0 0 0 0 0 0 0 0 0 0 0 0 0 0 0 0 0 0 0 0 0 0 0 0 0 0 0 0 0 0 0 0 0 0 0 0 0 0 0 0 0 0 0 0 0 0 0 0 0 0 0 0 0 0 0 0 0 0 0 0 0 0 0 0 0 0 0 0 0 0 0 0 0 0 0 0 0 0 0 0 0 0 0 0 0 0 0 0 0 0 0 0 0 0 0 0 0 0 0 0 0 0 0 0 0 0 0 0 0 0 0 0 0 0 0 0 0 0 0 0 0 0 0 0 0 0 0 0 0 0 0 0 0 0 0 0 0 0 0 0 0 0 0 0 0 0 0 0 0 0 0 0 0 0 0 0 0 0 0 0 0 0 0 0 0 0 0 0 0 0 0 0 0 0 0 0 0 0 0 0 0 0 0 0 0 0 0 0 0 0 0 0 0 0 0 0 0 0 0 0 0 0 0 0 0 0 0 0 0 0 0 0 0 0 0 0 0 0 0 0 0 0 0 0 0 0 0 0 0 0 0 0 0 0 0 0 0 0 0 0 0 0 0 0 0 0 0 0 0 0 0 0 0 0 0</v>
        </vertex_weights>
      </skin>
    </controller>
  </library_controllers>
  <library_animations>
    <animation id="root-anim" name="root-anim">
      <source id="root-anim-input">
        <float_array id="root-anim-input-array" count="2">0 1</float_array>
        <technique_common><accessor source="#root-anim-input-array" count="2" stride="1">
          <param name="TIME" type="float"/></accessor></technique_common>
      </source>
      <source id="root-anim-output">
        <float_array id="root-anim-output-array" count="32">1 0 0 0 0 1 0 0 0 0 1 0 0 0 0 1 1 0 0 0 0 1 0 0 0 0 1 0 0 0 0 1</float_array>
        <technique_common><accessor source="#root-anim-output-array" count="2" stride="16">
          <param name="TRANSFORM" type="float4x4"/></accessor></technique_common>
      </source>
      <source id="root-anim-interp">
        <Name_array id="root-anim-interp-array" count="2">LINEAR LINEAR</Name_array>
        <technique_common><accessor source="#root-anim-interp-array" count="2" stride="1">
          <param name="INTERPOLATION" type="name"/></accessor></technique_common>
      </source>
      <sampler id="root-anim-sampler">
        <input semantic="INPUT" source="#root-anim-input"/>
        <input semantic="OUTPUT" source="#root-anim-output"/>
        <input semantic="INTERPOLATION" source="#root-anim-interp"/>
      </sampler>
      <channel source="#root-anim-sampler" target="root/transform"/>
    </animation>
  </library_animations>
  <library_visual_scenes>
    <visual_scene id="Scene" name="Scene">
      <node id="Armature" name="Armature" type="NODE">
        <matrix sid="transform">1 0 0 0 0 1 0 0 0 0 1 0 0 0 0 1</matrix>
        <node id="root" name="root" sid="root" type="JOINT">
          <matrix sid="transform">1 0 0 0 0 1 0 0 0 0 1 0 0 0 0 1</matrix>
        </node>
      </node>
      <node id="worker" name="worker" type="NODE">
        <matrix sid="transform">1 0 0 0 0 1 0 0 0 0 1 0 0 0 0 1</matrix>
        <instance_controller url="#worker-skin">
          <skeleton>#root</skeleton>
          <bind_material><technique_common>
            <instance_material symbol="mat" target="#mat"/>
          </technique_common></bind_material>
        </instance_controller>
      </node>
    </visual_scene>
  </library_visual_scenes>
  <scene><instance_visual_scene url="#Scene"/></scene>
</COLLADA>
